<?xml version="1.0" encoding="UTF-8"?>
<svg xmlns="http://www.w3.org/2000/svg" style="display: none;">
    <!-- Existing icons from the document -->
    <symbol id="javascript" viewBox="0 0 448 512">
        <path fill="#F7DF1E" d="M0 32v448h448V32H0zm243.8 349.4c0 43.6-25.6 63.5-62.9 63.5-33.7 0-53.2-17.4-63.2-38.5l34.3-20.7c6.6 11.7 12.6 21.6 27.1 21.6 13.8 0 22.6-5.4 22.6-26.5V237.7h42.1v143.7zm99.6 63.5c-39.1 0-64.4-18.6-76.7-43l34.3-19.8c9 14.7 20.8 25.6 41.5 25.6 17.4 0 28.6-8.7 28.6-20.8 0-14.4-11.4-19.5-30.7-28l-10.5-4.5c-30.4-12.9-50.5-29.2-50.5-63.5 0-31.6 24.1-55.6 61.6-55.6 26.8 0 46 9.3 59.8 33.7L368 290c-7.2-12.9-15-18-27.1-18-12.3 0-20.1 7.8-20.1 18 0 12.6 7.8 17.7 25.9 25.6l10.5 4.5c35.8 15.3 55.9 31 55.9 66.2 0 37.8-29.8 58.6-69.7 58.6z"/>
    </symbol>
    
    <!-- Additional Technology Icons -->
    <symbol id="extjs" viewBox="0 0 512 512">
        <path fill="#86BC40" d="M256 0C114.615 0 0 114.615 0 256s114.615 256 256 256 256-114.615 256-256S397.385 0 256 0zm-32 384H96V128h128v48H144v64h96v48h-96v48h80v48zm192 0H288v-48h80v-48h-96v-48h96v-64H288v-48h128v256z"/>
    </symbol>
    
    <symbol id="nodejs" viewBox="0 0 512 512">
        <path fill="#539E43" d="M256 0c-7.8 0-15.3 2-22 5.8l-139 81.8C82.5 95.5 76 107 76 119.7v172.5c0 12.8 6.5 24.3 18.9 32.2l139 81.8c6.7 3.8 14.2 5.8 22 5.8s15.3-2 22-5.8l139-81.8c12.5-7.9 19-19.4 19-32.2V119.7c0-12.8-6.5-24.3-19-32.2L278 5.8C271.3 2 263.8 0 256 0zm0 32.8c4.1 0 8.1 1.1 11.6 3.1l139 81.8c6.6 4.2 10 10.2 10 17v172.5c0 6.8-3.4 12.8-10 17l-139 81.8c-3.5 2-7.5 3.1-11.6 3.1s-8.1-1.1-11.6-3.1l-139-81.8c-6.6-4.2-10-10.2-10-17V134.7c0-6.8 3.4-12.8 10-17l139-81.8c3.5-2 7.5-3.1 11.6-3.1z"/>
        <path fill="#539E43" d="M256 106.8c-30.4 0-55.2 24.8-55.2 55.2s24.8 55.2 55.2 55.2 55.2-24.8 55.2-55.2-24.8-55.2-55.2-55.2zm0 27.6c15.2 0 27.6 12.4 27.6 27.6s-12.4 27.6-27.6 27.6-27.6-12.4-27.6-27.6 12.4-27.6 27.6-27.6z"/>
    </symbol>
    
    <symbol id="php" viewBox="0 0 512 512">
        <path fill="#777BB4" d="M256 0C114.615 0 0 114.615 0 256s114.615 256 256 256 256-114.615 256-256S397.385 0 256 0zm-80 320H96V192h80c35.346 0 64 28.654 64 64s-28.654 64-64 64zm160 0h-80V192h80c35.346 0 64 28.654 64 64s-28.654 64-64 64z"/>
    </symbol>
    
    <symbol id="mongodb" viewBox="0 0 512 512">
        <path fill="#47A248" d="M256 0C114.615 0 0 114.615 0 256s114.615 256 256 256 256-114.615 256-256S397.385 0 256 0zm0 448c-106.039 0-192-85.961-192-192S149.961 64 256 64s192 85.961 192 192-85.961 192-192 192zm-32-320c0-17.673 14.327-32 32-32s32 14.327 32 32v128c0 17.673-14.327 32-32 32s-32-14.327-32-32V128z"/>
    </symbol>
    
    <symbol id="mysql" viewBox="0 0 512 512">
        <path fill="#4479A1" d="M256 0C114.615 0 0 114.615 0 256s114.615 256 256 256 256-114.615 256-256S397.385 0 256 0zm-32 384H96V128h128v48H144v64h96v48h-96v48h80v48zm192-128H288v128h-48V128h176v48H288v32h128v48z"/>
    </symbol>
    
    <symbol id="prisma" viewBox="0 0 512 512">
        <path fill="#2D3748" d="M256 0C114.615 0 0 114.615 0 256s114.615 256 256 256 256-114.615 256-256S397.385 0 256 0zm0 448L96 224l160-160 160 160-160 224z"/>
    </symbol>
    
    <symbol id="git" viewBox="0 0 512 512">
        <path fill="#F05032" d="M256 0C114.615 0 0 114.615 0 256s114.615 256 256 256 256-114.615 256-256S397.385 0 256 0zm0 448c-106.039 0-192-85.961-192-192S149.961 64 256 64s192 85.961 192 192-85.961 192-192 192z"/>
    </symbol>
    
    <symbol id="github" viewBox="0 0 512 512">
        <path fill="#181717" d="M256 0C114.615 0 0 114.615 0 256s114.615 256 256 256 256-114.615 256-256S397.385 0 256 0zm45.255 412.57c-106.039 0-192-85.961-192-192s85.961-192 192-192 192 85.961 192 192-85.961 192-192 192z"/>
    </symbol>
    
    <symbol id="svn" viewBox="0 0 512 512">
        <path fill="#809CC9" d="M256 0C114.615 0 0 114.615 0 256s114.615 256 256 256 256-114.615 256-256S397.385 0 256 0zm0 448c-106.039 0-192-85.961-192-192S149.961 64 256 64s192 85.961 192 192-85.961 192-192 192z"/>
    </symbol>
    
    <symbol id="docker" viewBox="0 0 512 512">
        <path fill="#2496ED" d="M256 0C114.615 0 0 114.615 0 256s114.615 256 256 256 256-114.615 256-256S397.385 0 256 0zm96 320H160c-17.673 0-32-14.327-32-32V160c0-17.673 14.327-32 32-32h192c17.673 0 32 14.327 32 32v128c0 17.673-14.327 32-32 32z"/>
    </symbol>
    
    <symbol id="vscode" viewBox="0 0 512 512">
        <path fill="#007ACC" d="M256 0C114.615 0 0 114.615 0 256s114.615 256 256 256 256-114.615 256-256S397.385 0 256 0zm128 384L256 448 128 384V128l128-64 128 64v256z"/>
    </symbol>
    
    <symbol id="astro" viewBox="0 0 512 512">
        <path fill="#FF5D01" d="M256 0C114.615 0 0 114.615 0 256s114.615 256 256 256 256-114.615 256-256S397.385 0 256 0zm0 448L96 224l160-160 160 160-160 224z"/>
    </symbol>
    
    <symbol id="openai" viewBox="0 0 512 512">
        <path fill="#10A37F" d="M256 0C114.615 0 0 114.615 0 256s114.615 256 256 256 256-114.615 256-256S397.385 0 256 0zm0 448c-106.039 0-192-85.961-192-192S149.961 64 256 64s192 85.961 192 192-85.961 192-192 192z"/>
    </symbol>
    
    <symbol id="langchain" viewBox="0 0 512 512">
        <path fill="#2B50AA" d="M256 0C114.615 0 0 114.615 0 256s114.615 256 256 256 256-114.615 256-256S397.385 0 256 0zm0 448c-106.039 0-192-85.961-192-192S149.961 64 256 64s192 85.961 192 192-85.961 192-192 192z"/>
    </symbol>
</svg>